<?xml version="1.0" encoding="iso-8859-1"?>
<!-- Generator: Adobe Illustrator 16.0.0, SVG Export Plug-In . SVG Version: 6.00 Build 0)  -->
<!DOCTYPE svg PUBLIC "-//W3C//DTD SVG 1.1//EN" "http://www.w3.org/Graphics/SVG/1.1/DTD/svg11.dtd">
<svg version="1.1" id="Capa_1" xmlns="http://www.w3.org/2000/svg" xmlns:xlink="http://www.w3.org/1999/xlink" x="0px" y="0px"
	 width="612px" height="612px" viewBox="0 0 612 612" style="enable-background:new 0 0 612 612;" xml:space="preserve">
<g>
	<g>
		<g id="Download">
			<g>
				<path d="M393.268,432.442l-49.228,50.354V343.874c0-20.902-16.868-37.867-37.677-37.867h-0.765
					c-20.808,0-37.657,16.944-37.657,37.867v133.13l-4.935-0.804l-42.782-42.592c-13.502-13.426-35.095-16.695-50.547-5.604
					c-19.623,14.097-21.229,41.482-4.858,57.777l115.553,115.036c7.134,7.115,16.83,11.112,26.947,11.112
					c10.116,0,19.812-3.997,26.946-11.112l112.876-114.73c14.898-14.821,14.898-38.843,0-53.646
					C432.282,417.62,408.146,417.62,393.268,432.442z M611.599,248.65c-0.611-14.362-1.913-29.107-3.441-44.141
					C597.485,100.317,514.348,14.847,410.614,1.9C298.695-12.062,200.507,55.412,166.35,153.025
					c-4.303-0.363-8.625-0.649-13.005-0.649C69.366,152.376,0,220.842,0,304.973v38.079c0,20.826,18.169,37.771,38.938,37.771h0.765
					c20.77,0,36.644-17.844,36.644-38.671v-30.046c-4.418-45.384,32.589-83.596,76.997-83.596c2.218,0,4.399,0.191,6.579,0.383
					l29.433-0.383c17.27,1.473,33.259-6.081,38.977-22.452l8.243-23.581c20.062-57.299,70.646-100.311,131.024-105.646
					c93.502-8.281,174.269,70.514,168.032,163.806l-0.134,8.013v97.997h0.383c1.09,19.909,18.608,35.859,38.729,35.859h0.766
					c19.813,0,34.998-16.275,36.375-35.859H612V248.65H611.599L611.599,248.65z"/>
			</g>
		</g>
	</g>
</g>
<g>
</g>
<g>
</g>
<g>
</g>
<g>
</g>
<g>
</g>
<g>
</g>
<g>
</g>
<g>
</g>
<g>
</g>
<g>
</g>
<g>
</g>
<g>
</g>
<g>
</g>
<g>
</g>
<g>
</g>
</svg>
