<svg xmlns="http://www.w3.org/2000/svg" width="28" height="28" viewBox="0 0 28 28">
    <path fill="#000" fill-rule="nonzero" d="M20.748 23.916c-.122-.721-.762-4.23-2.335-8.54 3.872-.616 7.227.442 7.475.523a11.956 11.956 0 0 1-5.14 8.017zm-6.703 2.041a11.97 11.97 0 0 1-7.642-2.74c.159.127.27.208.27.208s2.298-4.997 9.412-7.469c.027-.01.055-.016.081-.024 1.688 4.37 2.383 8.032 2.562 9.077a11.994 11.994 0 0 1-4.683.948zM2.05 14c0-.127.006-.252.01-.377.213.005 6.138.139 12.314-1.704.344.67.672 1.353.973 2.033-.159.043-.316.091-.472.144-6.473 2.084-9.757 7.889-9.757 7.889s.005.004.005.006A11.888 11.888 0 0 1 2.05 14zM8.927 3.19c.16.212 2.378 3.21 4.455 6.887-5.76 1.526-10.76 1.465-11.074 1.46A11.966 11.966 0 0 1 8.927 3.19zm13.04 1.84c-.03.044-1.738 2.638-6.266 4.328a60.709 60.709 0 0 0-4.483-6.975 12.032 12.032 0 0 1 2.827-.337c3.036 0 5.81 1.129 7.921 2.984zm4.07 8.852c-.174-.038-4.234-.91-8.354-.392-.086-.204-.171-.41-.26-.616a35.879 35.879 0 0 0-.798-1.734c4.737-1.929 6.66-4.7 6.683-4.732a11.886 11.886 0 0 1 2.728 7.474zm1.768-2.699a14.016 14.016 0 0 0-.82-2.632 14.014 14.014 0 0 0-5.087-6.157c-.752-.506-1.55-.94-2.386-1.292a14.111 14.111 0 0 0-10.935 0A14.07 14.07 0 0 0 2.4 6.174 13.897 13.897 0 0 0 0 14a13.822 13.822 0 0 0 1.105 5.45c.353.834.786 1.631 1.295 2.38a14.075 14.075 0 0 0 6.177 5.07c.849.359 1.737.632 2.64.814a14.037 14.037 0 0 0 5.656 0 14.008 14.008 0 0 0 5.025-2.106 14.25 14.25 0 0 0 2.079-1.706 14.173 14.173 0 0 0 1.713-2.07 13.956 13.956 0 0 0 2.115-5.01 14.12 14.12 0 0 0 0-5.639z"/>
</svg>
