<?xml version="1.0" encoding="UTF-8"?>
<svg width="27px" height="28px" viewBox="0 0 27 28" version="1.1" xmlns="http://www.w3.org/2000/svg" xmlns:xlink="http://www.w3.org/1999/xlink">
    <!-- Generator: Sketch 52.4 (67378) - http://www.bohemiancoding.com/sketch -->
    <title>insta copy</title>
    <desc>Created with Sketch.</desc>
    <g id="Page-1" stroke="none" stroke-width="1" fill="none" fill-rule="evenodd">
        <g id="Desktop-HD-Copy-8" transform="translate(-288.000000, -588.000000)" fill="#E4405F" fill-rule="nonzero">
            <g id="Group-3" transform="translate(288.000000, 588.000000)">
                <path d="M26.919,8.935 C26.8967795,7.81491101 26.684774,6.7067005 26.292,5.6575 C25.9525864,4.75663292 25.4207197,3.94066035 24.7335,3.2665 C24.0593396,2.5792803 23.2433671,2.04741361 22.3425,1.708 C21.293773,1.31539242 20.1860837,1.10338963 19.0665,1.081 C17.625,1.015 17.166,1 13.5,1 C9.834,1 9.375,1.015 7.935,1.081 C6.81491101,1.10322054 5.7067005,1.31522603 4.6575,1.708 C3.75609632,2.04722047 2.93959472,2.57909831 2.265,3.2665 C1.5777803,3.94066035 1.04591361,4.75663292 0.7065,5.6575 C0.313892423,6.70622701 0.101889626,7.81391626 0.0795,8.9335 C0.015,10.375 0,10.834 0,14.5 C0,18.166 0.015,18.625 0.081,20.065 C0.103220539,21.185089 0.315226028,22.2932995 0.708,23.3425 C1.04741361,24.2433671 1.5792803,25.0593396 2.2665,25.7335 C2.94062963,26.4207572 3.75661101,26.9526296 4.6575,27.292 C5.70622701,27.6846076 6.81391626,27.8966104 7.9335,27.919 C9.375,27.985 9.834,28 13.5,28 C17.166,28 17.625,27.985 19.065,27.919 C20.185089,27.8967795 21.2932995,27.684774 22.3425,27.292 C24.1566069,26.5906818 25.5906818,25.1566069 26.292,23.3425 C26.6846076,22.293773 26.8966104,21.1860837 26.919,20.0665 C26.985,18.625 27,18.166 27,14.5 C27,10.834 26.985,10.375 26.919,8.935 Z M24.489,19.9555 C24.4786504,20.810973 24.3213613,21.6583047 24.024,22.4605 C23.5702601,23.6384118 22.639646,24.5695707 21.462,25.024 C20.6593233,25.3215014 19.8114748,25.4787923 18.9555,25.489 C17.5305,25.5535 17.1045,25.567 13.5,25.567 C9.8955,25.567 9.468,25.5535 8.0445,25.489 C7.18902995,25.4786207 6.34170328,25.3213325 5.5395,25.024 C4.95252564,24.807945 4.42148996,24.4629768 3.9855,24.0145 C3.53721029,23.5789422 3.19225391,23.0484372 2.976,22.462 C2.67846975,21.6593313 2.52117794,20.8114777 2.511,19.9555 C2.4465,18.5305 2.433,18.1045 2.433,14.5 C2.433,10.8955 2.4465,10.468 2.511,9.0445 C2.52137929,8.18902995 2.67866748,7.34170328 2.976,6.5395 C3.19205504,5.95252564 3.5370232,5.42148996 3.9855,4.9855 C4.42105785,4.53721029 4.95156283,4.19225391 5.538,3.976 C6.3406767,3.67849857 7.18852524,3.52120769 8.0445,3.511 C9.4695,3.4465 9.8955,3.433 13.5,3.433 C17.1045,3.433 17.532,3.4465 18.9555,3.511 C19.81097,3.52137929 20.6582967,3.67866748 21.4605,3.976 C22.0474744,4.19205504 22.57851,4.5370232 23.0145,4.9855 C23.4627897,5.42105785 23.8077461,5.95156283 24.024,6.538 C24.3215014,7.3406767 24.4787923,8.18852524 24.489,9.0445 C24.5535,10.4695 24.567,10.8955 24.567,14.5 C24.567,18.1045 24.5535,18.532 24.489,19.9555 Z M13.5,7.567 C9.67100983,7.567 6.567,10.6710098 6.567,14.5 C6.567,18.3289902 9.67100983,21.433 13.5,21.433 C17.3289902,21.433 20.433,18.3289902 20.433,14.5 C20.433,12.6612541 19.702561,10.8978184 18.4023713,9.59762869 C17.1021816,8.29743897 15.3387459,7.567 13.5,7.567 Z M13.5,19 C11.0147186,19 9,16.9852814 9,14.5 C9,12.0147186 11.0147186,10 13.5,10 C15.9852814,10 18,12.0147186 18,14.5 C18,16.9852814 15.9852814,19 13.5,19 Z M22.326,7.294 C22.326,8.18870129 21.6007013,8.914 20.706,8.914 C19.8112987,8.914 19.086,8.18870129 19.086,7.294 C19.086,6.39929871 19.8112987,5.674 20.706,5.674 C21.6007013,5.674 22.326,6.39929871 22.326,7.294 Z" id="Shape"></path>
            </g>
        </g>
    </g>
</svg>