<svg xmlns="http://www.w3.org/2000/svg" width="27" height="28" viewBox="0 0 27 28">
    <path fill="#000" fill-rule="nonzero" d="M26.919 8.935a9.909 9.909 0 0 0-.627-3.278 6.618 6.618 0 0 0-1.559-2.39 6.618 6.618 0 0 0-2.39-1.559 9.909 9.909 0 0 0-3.276-.627C17.625 1.015 17.166 1 13.5 1c-3.666 0-4.125.015-5.565.081a9.909 9.909 0 0 0-3.277.627 6.618 6.618 0 0 0-2.393 1.559 6.618 6.618 0 0 0-1.558 2.39A9.909 9.909 0 0 0 .08 8.934C.015 10.375 0 10.834 0 14.5s.015 4.125.081 5.565a9.909 9.909 0 0 0 .627 3.277c.34.901.871 1.717 1.559 2.392a6.617 6.617 0 0 0 2.39 1.558 9.909 9.909 0 0 0 3.277.627c1.441.066 1.9.081 5.566.081s4.125-.015 5.565-.081a9.909 9.909 0 0 0 3.277-.627 6.903 6.903 0 0 0 3.95-3.95 9.909 9.909 0 0 0 .627-3.275c.066-1.442.081-1.901.081-5.567 0-3.666-.015-4.125-.081-5.565zm-2.43 11.02a7.467 7.467 0 0 1-.465 2.506 4.47 4.47 0 0 1-2.562 2.563 7.469 7.469 0 0 1-2.506.465c-1.425.064-1.851.078-5.456.078-3.604 0-4.032-.014-5.456-.078a7.469 7.469 0 0 1-2.505-.465 4.182 4.182 0 0 1-1.553-1.01 4.182 4.182 0 0 1-1.01-1.552 7.467 7.467 0 0 1-.465-2.506c-.065-1.425-.078-1.851-.078-5.456 0-3.604.014-4.032.078-5.456.01-.855.168-1.702.465-2.505a4.182 4.182 0 0 1 1.01-1.553 4.182 4.182 0 0 1 1.552-1.01 7.468 7.468 0 0 1 2.506-.465c1.425-.065 1.851-.078 5.456-.078 3.605 0 4.032.014 5.456.078.855.01 1.702.168 2.505.465a4.182 4.182 0 0 1 1.554 1.01c.448.435.793.966 1.009 1.552.298.803.455 1.65.465 2.506.064 1.425.078 1.851.078 5.456 0 3.605-.014 4.032-.078 5.456zM13.5 7.568a6.933 6.933 0 1 0 0 13.866 6.933 6.933 0 0 0 0-13.866zM13.5 19a4.5 4.5 0 1 1 0-9 4.5 4.5 0 0 1 0 9zm8.826-11.706a1.62 1.62 0 1 1-3.24 0 1.62 1.62 0 0 1 3.24 0z"/>
</svg>
