<?xml version="1.0" encoding="UTF-8"?>
<svg width="31px" height="31px" viewBox="0 0 31 31" version="1.1" xmlns="http://www.w3.org/2000/svg" xmlns:xlink="http://www.w3.org/1999/xlink">
    <!-- Generator: Sketch 52.4 (67378) - http://www.bohemiancoding.com/sketch -->
    <title>Linkedin Copy</title>
    <desc>Created with Sketch.</desc>
    <g id="Page-1" stroke="none" stroke-width="1" fill="none" fill-rule="evenodd">
        <g id="Desktop-HD-Copy-8" transform="translate(-418.000000, -587.000000)" fill="#0077B5" fill-rule="nonzero">
            <g id="Linkedin" transform="translate(418.000000, 587.000000)">
                <path d="M6.07484171,0 C2.73415483,0 0,2.7340928 0,6.07484171 L0,24.9261507 C0,28.2668376 2.7340928,31 6.07484171,31 L24.9261507,31 C28.2668686,31 31,28.2668686 31,24.9261507 L31,6.07484171 C31,2.73415483 28.2668686,0 24.9261507,0 L6.07484171,0 Z M7.6027554,5.11562353 C9.20454339,5.11562353 10.1911775,6.16716905 10.2216329,7.54941209 C10.2216329,8.9011378 9.20448136,9.98223924 7.57177286,9.98223924 L7.54172073,9.98223924 C5.97041907,9.98223924 4.95481826,8.90119982 4.95481826,7.54941209 C4.95481826,6.16720007 6.0011535,5.11562353 7.60272439,5.11562353 L7.6027554,5.11562353 Z M21.4062675,11.5760567 C24.4868127,11.5760567 26.7961129,13.5895186 26.7961129,17.9163434 L26.7961129,25.9937923 L22.114524,25.9937923 L22.114524,18.4579021 C22.114524,16.5642146 21.436971,15.272252 19.7427316,15.272252 C18.4493424,15.272252 17.6784075,16.1430505 17.3399255,16.9842621 C17.2162745,17.2852176 17.1858812,17.7055443 17.1858812,18.1265533 L17.1858812,25.9937923 L12.5042924,25.9937923 C12.5042924,25.9937923 12.5657302,13.2282107 12.5042924,11.9064131 L17.1868427,11.9064131 L17.1868427,13.9013289 C17.8089745,12.9414594 18.9218028,11.5760257 21.4062675,11.5760257 L21.4062675,11.5760567 Z M5.23096293,11.9074365 L9.91255179,11.9074365 L9.91255179,25.9938543 L5.23096293,25.9938543 L5.23096293,11.9074365 Z" id="Shape"></path>
            </g>
        </g>
    </g>
</svg>