<svg xmlns="http://www.w3.org/2000/svg" width="31" height="31" viewBox="0 0 31 31">
    <path fill="#000" fill-rule="nonzero" d="M6.075 0C2.735 0 0 2.734 0 6.075v18.851C0 28.266 2.734 31 6.075 31h18.851C28.266 31 31 28.267 31 24.926V6.075C31 2.735 28.267 0 24.926 0H6.075zm1.528 5.116c1.602 0 2.588 1.051 2.619 2.433 0 1.352-1.018 2.433-2.65 2.433h-.03c-1.572 0-2.587-1.08-2.587-2.433 0-1.382 1.046-2.433 2.648-2.433zm13.803 6.46c3.08 0 5.39 2.014 5.39 6.34v8.078h-4.681v-7.536c0-1.894-.678-3.186-2.372-3.186-1.294 0-2.065.871-2.403 1.712-.124.301-.154.722-.154 1.143v7.867h-4.682s.062-12.766 0-14.088h4.683v1.995c.622-.96 1.735-2.325 4.22-2.325zm-16.175.331h4.682v14.087H5.23V11.907z"/>
</svg>
