<?xml version="1.0" encoding="UTF-8"?>
<svg width="29px" height="26px" viewBox="0 0 29 26" version="1.1" xmlns="http://www.w3.org/2000/svg" xmlns:xlink="http://www.w3.org/1999/xlink">
    <!-- Generator: Sketch 52.4 (67378) - http://www.bohemiancoding.com/sketch -->
    <title>Medium Copy</title>
    <desc>Created with Sketch.</desc>
    <g id="Page-1" stroke="none" stroke-width="1" fill="none" fill-rule="evenodd">
        <g id="Desktop-HD-Copy-8" transform="translate(-219.000000, -588.000000)" fill="#00AB6C">
            <g id="medium" transform="translate(219.000000, 588.000000)">
                <path d="M3.38568531,7.69194591 C3.42115865,7.3363088 3.28750218,6.98480109 3.02578963,6.74544385 L0.359895681,3.48677249 L0.359895681,3 L8.63749638,3 L15.0356418,17.2380952 L20.6606782,3 L28.5517241,3 L28.5517241,3.48677249 L26.2723849,5.70429159 C26.0758808,5.85627882 25.9784048,6.1060806 26.019125,6.35332158 L26.019125,22.6466785 C25.9784048,22.8939194 26.0758808,23.1437211 26.2723849,23.2957084 L28.4984063,25.5132276 L28.4984063,26 L17.3016517,26 L17.3016517,25.5132276 L19.60765,23.2416226 C19.8342509,23.0117577 19.8342509,22.9441506 19.8342509,22.5925927 L19.8342509,9.42269254 L13.422776,25.9459142 L12.5563605,25.9459142 L5.09185742,9.42269254 L5.09185742,20.4967666 C5.02962112,20.9623518 5.1820115,21.4310942 5.50507099,21.7677837 L8.50420167,25.4591417 L8.50420167,25.9459142 L6.21724894e-14,25.9459142 L6.21724894e-14,25.4591417 L2.99913069,21.7677837 C3.31983801,21.430536 3.4633424,20.9586842 3.38568531,20.4967666 L3.38568531,7.69194591 Z" id="Shape"></path>
            </g>
        </g>
    </g>
</svg>