<svg xmlns="http://www.w3.org/2000/svg" width="31" height="28" viewBox="0 0 31 28">
    <g fill="none" fill-rule="evenodd">
        <path fill="#FFF" d="M-353-588h1440v4168H-353z"/>
        <path fill="#000" d="M10.558 25c10.268 0 15.884-8.386 15.884-15.659 0-.238 0-.475-.016-.71a11.252 11.252 0 0 0 2.785-2.852c-1.02.446-2.1.739-3.206.868a5.543 5.543 0 0 0 2.455-3.045 11.288 11.288 0 0 1-3.546 1.335 5.645 5.645 0 0 0-7.9-.238A5.461 5.461 0 0 0 15.4 9.957 15.934 15.934 0 0 1 3.894 4.208a5.46 5.46 0 0 0 1.73 7.345 5.603 5.603 0 0 1-2.536-.687v.069c.002 2.62 1.875 4.875 4.48 5.394a5.631 5.631 0 0 1-2.52.094c.73 2.243 2.827 3.778 5.214 3.823A11.303 11.303 0 0 1 2 22.528a15.977 15.977 0 0 0 8.558 2.468"/>
    </g>
</svg>
