<?xml version="1.0" encoding="UTF-8"?>
<svg width="31px" height="28px" viewBox="0 0 31 28" version="1.1" xmlns="http://www.w3.org/2000/svg" xmlns:xlink="http://www.w3.org/1999/xlink">
    <!-- Generator: Sketch 52.4 (67378) - http://www.bohemiancoding.com/sketch -->
    <title>twitter copy</title>
    <desc>Created with Sketch.</desc>
    <g id="Page-1" stroke="none" stroke-width="1" fill="none" fill-rule="evenodd">
        <g id="Desktop-HD-Copy-8" transform="translate(-353.000000, -588.000000)" fill="#38A1F3">
            <g id="twitter" transform="translate(353.000000, 588.000000)">
                <path d="M10.5577105,25 C20.8256026,25 26.4418553,16.6141176 26.4418553,9.34117647 C26.4418553,9.10278638 26.4418553,8.86575851 26.4255289,8.63009288 C27.5159147,7.85321592 28.4590398,6.88769012 29.2105263,5.77894737 C28.1907814,6.22527112 27.1105631,6.51769908 26.0051263,6.64668731 C27.1656032,5.96419459 28.0381046,4.88188794 28.4595158,3.60210526 C27.3611423,4.24373927 26.1624499,4.69507803 24.9139842,4.93708978 C22.7835711,2.72051284 19.2746467,2.61461716 17.0147684,4.69869969 C15.5689406,6.03168365 14.9518743,8.0408302 15.3998237,9.95690402 C10.9284995,9.74319096 6.75294888,7.65700472 3.89385263,4.20829721 C2.41339658,6.72537494 3.17570481,9.96338471 5.62308158,11.5534365 C4.73572427,11.528219 3.86702147,11.2924466 3.08842105,10.8655108 L3.08842105,10.9349845 C3.08978158,13.5545511 4.96322632,15.8104025 7.56727368,16.3294118 C6.74523249,16.5507978 5.88379409,16.5829326 5.04757895,16.4234056 C5.77818158,18.6656347 7.87475263,20.2008669 10.2624763,20.2458204 C7.91382224,22.0620265 4.94645308,22.8814837 2,22.5275542 C4.56158948,24.1450774 7.52925241,25.0010607 10.5577105,24.9959133" id="twitter-[#154]"></path>
            </g>
        </g>
    </g>
</svg>