<svg width="520" height="233" viewBox="0 0 520 233" fill="none" xmlns="http://www.w3.org/2000/svg">
<rect x="0.5" y="0.5" width="519" height="232" rx="5.5" fill="white" stroke="#EFEFEF"/>
<path d="M161.01 123.848L162.858 123.624V112.592L161.066 112.088V110.156L165.406 109.568H165.49L166.19 110.128V110.744L166.106 113.012H166.19C166.321 112.639 166.629 112.181 167.114 111.64C167.599 111.08 168.206 110.595 168.934 110.184C169.681 109.755 170.483 109.54 171.342 109.54C171.753 109.54 172.107 109.596 172.406 109.708V113.908C171.846 113.516 171.165 113.32 170.362 113.32C168.999 113.32 167.814 113.684 166.806 114.412V123.596L170.054 123.848V125.5H161.01V123.848ZM181.246 125.808C178.782 125.808 176.943 125.089 175.73 123.652C174.535 122.196 173.938 120.217 173.938 117.716C173.938 116.036 174.246 114.58 174.862 113.348C175.496 112.116 176.383 111.173 177.522 110.52C178.66 109.867 179.976 109.54 181.47 109.54C183.336 109.54 184.774 110.035 185.782 111.024C186.79 111.995 187.312 113.385 187.35 115.196C187.35 116.428 187.275 117.343 187.126 117.94H178.026C178.1 119.639 178.502 120.964 179.23 121.916C179.958 122.849 180.994 123.316 182.338 123.316C183.066 123.316 183.812 123.195 184.578 122.952C185.362 122.709 185.978 122.42 186.426 122.084L187.126 123.624C186.622 124.165 185.8 124.669 184.662 125.136C183.542 125.584 182.403 125.808 181.246 125.808ZM183.43 116.26C183.467 115.737 183.486 115.336 183.486 115.056C183.486 112.573 182.655 111.332 180.994 111.332C180.079 111.332 179.37 111.696 178.866 112.424C178.362 113.152 178.082 114.431 178.026 116.26H183.43ZM189.584 123.82L191.152 123.568V112.592L189.36 112.088V110.156L194.008 109.568L194.344 109.792L194.764 110.716V111.892C195.38 111.295 196.258 110.772 197.396 110.324C198.554 109.857 199.552 109.624 200.392 109.624C201.4 109.624 202.212 109.792 202.828 110.128C203.463 110.464 203.939 110.987 204.256 111.696C204.872 111.136 205.684 110.651 206.692 110.24C207.7 109.829 208.69 109.624 209.66 109.624C211.322 109.624 212.498 110.109 213.188 111.08C213.879 112.051 214.224 113.637 214.224 115.84V123.568L216.044 123.82V125.5H208.792V123.82L210.248 123.568V115.952C210.248 114.496 210.071 113.479 209.716 112.9C209.38 112.303 208.727 112.004 207.756 112.004C207.234 112.004 206.692 112.125 206.132 112.368C205.591 112.592 205.106 112.872 204.676 113.208C204.807 113.917 204.872 114.804 204.872 115.868V123.568L206.608 123.82V125.5H199.3V123.82L200.84 123.568V115.868C200.84 114.897 200.775 114.141 200.644 113.6C200.532 113.04 200.308 112.639 199.972 112.396C199.636 112.135 199.151 112.004 198.516 112.004C197.919 112.004 197.322 112.144 196.724 112.424C196.146 112.685 195.623 113.003 195.156 113.376V123.568L196.808 123.82V125.5H189.584V123.82ZM217.94 117.744C217.94 115.989 218.285 114.496 218.976 113.264C219.685 112.032 220.628 111.108 221.804 110.492C222.98 109.857 224.258 109.54 225.64 109.54C227.992 109.54 229.802 110.268 231.072 111.724C232.36 113.161 233.004 115.121 233.004 117.604C233.004 119.377 232.649 120.889 231.94 122.14C231.249 123.372 230.316 124.296 229.14 124.912C227.982 125.509 226.704 125.808 225.304 125.808C222.97 125.808 221.16 125.089 219.872 123.652C218.584 122.196 217.94 120.227 217.94 117.744ZM225.528 123.988C227.637 123.988 228.692 121.953 228.692 117.884C228.692 115.756 228.44 114.141 227.936 113.04C227.432 111.92 226.61 111.36 225.472 111.36C223.306 111.36 222.224 113.395 222.224 117.464C222.224 119.592 222.485 121.216 223.008 122.336C223.549 123.437 224.389 123.988 225.528 123.988ZM240.253 125.752C239.077 125.752 238.209 125.481 237.649 124.94C237.089 124.399 236.809 123.54 236.809 122.364V112.088H234.989V110.632C235.138 110.576 235.409 110.483 235.801 110.352C236.193 110.203 236.492 110.081 236.697 109.988C237.014 109.745 237.285 109.325 237.509 108.728C237.677 108.336 237.985 107.365 238.433 105.816H240.673L240.785 109.932H245.069V112.088H240.813V119.956C240.813 121.001 240.841 121.739 240.897 122.168C240.953 122.597 241.074 122.877 241.261 123.008C241.448 123.12 241.774 123.176 242.241 123.176C242.708 123.176 243.193 123.129 243.697 123.036C244.201 122.924 244.621 122.793 244.957 122.644L245.489 124.212C244.966 124.604 244.201 124.959 243.193 125.276C242.185 125.593 241.205 125.752 240.253 125.752ZM254.035 125.808C251.571 125.808 249.732 125.089 248.519 123.652C247.324 122.196 246.727 120.217 246.727 117.716C246.727 116.036 247.035 114.58 247.651 113.348C248.285 112.116 249.172 111.173 250.311 110.52C251.449 109.867 252.765 109.54 254.259 109.54C256.125 109.54 257.563 110.035 258.571 111.024C259.579 111.995 260.101 113.385 260.139 115.196C260.139 116.428 260.064 117.343 259.915 117.94H250.815C250.889 119.639 251.291 120.964 252.019 121.916C252.747 122.849 253.783 123.316 255.127 123.316C255.855 123.316 256.601 123.195 257.367 122.952C258.151 122.709 258.767 122.42 259.215 122.084L259.915 123.624C259.411 124.165 258.589 124.669 257.451 125.136C256.331 125.584 255.192 125.808 254.035 125.808ZM256.219 116.26C256.256 115.737 256.275 115.336 256.275 115.056C256.275 112.573 255.444 111.332 253.783 111.332C252.868 111.332 252.159 111.696 251.655 112.424C251.151 113.152 250.871 114.431 250.815 116.26H256.219ZM262.065 121.132C262.065 119.433 262.915 118.155 264.613 117.296C266.331 116.437 268.543 115.999 271.249 115.98V115.336C271.249 114.571 271.165 113.973 270.997 113.544C270.848 113.115 270.559 112.797 270.129 112.592C269.719 112.368 269.112 112.256 268.309 112.256C267.395 112.256 266.573 112.377 265.845 112.62C265.117 112.844 264.361 113.143 263.577 113.516L262.709 111.724C262.989 111.481 263.456 111.192 264.109 110.856C264.781 110.52 265.575 110.231 266.489 109.988C267.404 109.727 268.347 109.596 269.317 109.596C270.755 109.596 271.875 109.783 272.677 110.156C273.499 110.529 274.087 111.127 274.441 111.948C274.796 112.769 274.973 113.871 274.973 115.252V123.82H276.485V125.388C276.112 125.481 275.58 125.575 274.889 125.668C274.199 125.761 273.592 125.808 273.069 125.808C272.435 125.808 272.005 125.715 271.781 125.528C271.576 125.341 271.473 124.959 271.473 124.38V123.624C270.969 124.184 270.316 124.688 269.513 125.136C268.711 125.584 267.805 125.808 266.797 125.808C265.939 125.808 265.145 125.631 264.417 125.276C263.708 124.903 263.139 124.371 262.709 123.68C262.28 122.971 262.065 122.121 262.065 121.132ZM268.589 123.484C268.981 123.484 269.429 123.372 269.933 123.148C270.437 122.905 270.876 122.616 271.249 122.28V117.688C269.569 117.688 268.309 117.977 267.469 118.556C266.648 119.116 266.237 119.844 266.237 120.74C266.237 121.636 266.443 122.317 266.853 122.784C267.283 123.251 267.861 123.484 268.589 123.484ZM293.717 117.212C293.717 118.78 293.39 120.217 292.737 121.524C292.102 122.831 291.159 123.876 289.909 124.66C288.677 125.425 287.202 125.808 285.485 125.808C285.111 125.808 284.719 125.771 284.309 125.696C283.917 125.64 283.599 125.565 283.357 125.472L283.441 127.796V130.344L286.045 130.68V132.276H277.729V130.68L279.549 130.344V112.592L277.729 112.088V110.156L282.349 109.568H282.405L283.105 110.128V111.696C283.571 111.117 284.206 110.613 285.009 110.184C285.811 109.755 286.689 109.54 287.641 109.54C289.414 109.54 290.87 110.175 292.009 111.444C293.147 112.695 293.717 114.617 293.717 117.212ZM286.185 111.864C285.625 111.864 285.093 111.985 284.589 112.228C284.085 112.471 283.702 112.741 283.441 113.04V123.428C283.571 123.615 283.833 123.773 284.225 123.904C284.635 124.035 285.083 124.1 285.569 124.1C286.782 124.1 287.743 123.577 288.453 122.532C289.181 121.468 289.545 119.807 289.545 117.548C289.545 115.644 289.237 114.225 288.621 113.292C288.005 112.34 287.193 111.864 286.185 111.864ZM311.49 117.212C311.49 118.78 311.163 120.217 310.51 121.524C309.875 122.831 308.933 123.876 307.682 124.66C306.45 125.425 304.975 125.808 303.258 125.808C302.885 125.808 302.493 125.771 302.082 125.696C301.69 125.64 301.373 125.565 301.13 125.472L301.214 127.796V130.344L303.818 130.68V132.276H295.502V130.68L297.322 130.344V112.592L295.502 112.088V110.156L300.122 109.568H300.178L300.878 110.128V111.696C301.345 111.117 301.979 110.613 302.782 110.184C303.585 109.755 304.462 109.54 305.414 109.54C307.187 109.54 308.643 110.175 309.782 111.444C310.921 112.695 311.49 114.617 311.49 117.212ZM303.958 111.864C303.398 111.864 302.866 111.985 302.362 112.228C301.858 112.471 301.475 112.741 301.214 113.04V123.428C301.345 123.615 301.606 123.773 301.998 123.904C302.409 124.035 302.857 124.1 303.342 124.1C304.555 124.1 305.517 123.577 306.226 122.532C306.954 121.468 307.318 119.807 307.318 117.548C307.318 115.644 307.01 114.225 306.394 113.292C305.778 112.34 304.966 111.864 303.958 111.864ZM316.888 123.204C317.037 123.428 317.373 123.643 317.896 123.848C318.437 124.035 318.978 124.128 319.52 124.128C320.397 124.128 321.05 123.951 321.48 123.596C321.928 123.223 322.152 122.737 322.152 122.14C322.152 121.524 321.881 121.029 321.34 120.656C320.798 120.264 319.884 119.788 318.596 119.228L317.812 118.892C316.524 118.351 315.562 117.697 314.928 116.932C314.293 116.167 313.976 115.177 313.976 113.964C313.976 113.124 314.228 112.377 314.732 111.724C315.236 111.052 315.945 110.529 316.86 110.156C317.774 109.783 318.829 109.596 320.024 109.596C320.901 109.596 321.648 109.652 322.264 109.764C322.898 109.876 323.561 110.025 324.252 110.212C324.625 110.343 324.905 110.417 325.092 110.436V114.104H322.88L322.236 111.976C322.124 111.789 321.872 111.621 321.48 111.472C321.088 111.323 320.64 111.248 320.136 111.248C319.37 111.248 318.754 111.416 318.288 111.752C317.84 112.069 317.616 112.517 317.616 113.096C317.616 113.619 317.774 114.057 318.092 114.412C318.409 114.748 318.754 115.009 319.128 115.196C319.501 115.383 320.192 115.691 321.2 116.12C322.208 116.549 323.038 116.96 323.692 117.352C324.364 117.744 324.914 118.257 325.344 118.892C325.792 119.508 326.016 120.264 326.016 121.16C326.016 122.541 325.474 123.661 324.392 124.52C323.309 125.379 321.75 125.808 319.716 125.808C318.764 125.808 317.905 125.724 317.14 125.556C316.393 125.388 315.525 125.164 314.536 124.884L313.92 124.688V120.992H316.244L316.888 123.204ZM330.931 125.752C330.352 125.752 329.848 125.556 329.419 125.164C328.99 124.753 328.775 124.24 328.775 123.624C328.775 122.933 329.018 122.373 329.503 121.944C330.007 121.496 330.614 121.272 331.323 121.272C331.995 121.272 332.527 121.487 332.919 121.916C333.311 122.327 333.507 122.821 333.507 123.4C333.507 124.128 333.264 124.707 332.779 125.136C332.312 125.547 331.696 125.752 330.931 125.752ZM341.206 125.752C340.03 125.752 339.162 125.481 338.602 124.94C338.042 124.399 337.762 123.54 337.762 122.364V112.088H335.942V110.632C336.092 110.576 336.362 110.483 336.754 110.352C337.146 110.203 337.445 110.081 337.65 109.988C337.968 109.745 338.238 109.325 338.462 108.728C338.63 108.336 338.938 107.365 339.386 105.816H341.626L341.738 109.932H346.022V112.088H341.766V119.956C341.766 121.001 341.794 121.739 341.85 122.168C341.906 122.597 342.028 122.877 342.214 123.008C342.401 123.12 342.728 123.176 343.194 123.176C343.661 123.176 344.146 123.129 344.65 123.036C345.154 122.924 345.574 122.793 345.91 122.644L346.442 124.212C345.92 124.604 345.154 124.959 344.146 125.276C343.138 125.593 342.158 125.752 341.206 125.752ZM347.932 117.744C347.932 115.989 348.277 114.496 348.968 113.264C349.677 112.032 350.62 111.108 351.796 110.492C352.972 109.857 354.251 109.54 355.632 109.54C357.984 109.54 359.795 110.268 361.064 111.724C362.352 113.161 362.996 115.121 362.996 117.604C362.996 119.377 362.641 120.889 361.932 122.14C361.241 123.372 360.308 124.296 359.132 124.912C357.975 125.509 356.696 125.808 355.296 125.808C352.963 125.808 351.152 125.089 349.864 123.652C348.576 122.196 347.932 120.227 347.932 117.744ZM355.52 123.988C357.629 123.988 358.684 121.953 358.684 117.884C358.684 115.756 358.432 114.141 357.928 113.04C357.424 111.92 356.603 111.36 355.464 111.36C353.299 111.36 352.216 113.395 352.216 117.464C352.216 119.592 352.477 121.216 353 122.336C353.541 123.437 354.381 123.988 355.52 123.988ZM371.393 125.808C370.236 125.808 369.2 125.537 368.285 124.996C367.371 124.436 366.643 123.577 366.101 122.42C365.56 121.263 365.289 119.816 365.289 118.08C365.289 116.512 365.607 115.084 366.241 113.796C366.895 112.489 367.847 111.453 369.097 110.688C370.348 109.923 371.851 109.54 373.605 109.54C374.315 109.54 374.987 109.615 375.621 109.764V105.032L372.877 104.64V103.1L378.645 102.54H378.729L379.513 103.128V123.792H381.025V125.388C379.681 125.668 378.571 125.808 377.693 125.808C377.096 125.808 376.667 125.705 376.405 125.5C376.163 125.313 376.041 124.931 376.041 124.352V123.568C375.556 124.221 374.893 124.763 374.053 125.192C373.213 125.603 372.327 125.808 371.393 125.808ZM372.849 123.484C373.465 123.484 374.007 123.363 374.473 123.12C374.959 122.859 375.341 122.551 375.621 122.196V112.004C375.491 111.817 375.211 111.659 374.781 111.528C374.371 111.397 373.923 111.332 373.437 111.332C372.243 111.332 371.281 111.855 370.553 112.9C369.844 113.927 369.489 115.579 369.489 117.856C369.489 119.76 369.797 121.179 370.413 122.112C371.029 123.027 371.841 123.484 372.849 123.484ZM382.761 121.132C382.761 119.433 383.61 118.155 385.309 117.296C387.026 116.437 389.238 115.999 391.945 115.98V115.336C391.945 114.571 391.861 113.973 391.693 113.544C391.543 113.115 391.254 112.797 390.825 112.592C390.414 112.368 389.807 112.256 389.005 112.256C388.09 112.256 387.269 112.377 386.541 112.62C385.813 112.844 385.057 113.143 384.273 113.516L383.405 111.724C383.685 111.481 384.151 111.192 384.805 110.856C385.477 110.52 386.27 110.231 387.185 109.988C388.099 109.727 389.042 109.596 390.013 109.596C391.45 109.596 392.57 109.783 393.373 110.156C394.194 110.529 394.782 111.127 395.137 111.948C395.491 112.769 395.669 113.871 395.669 115.252V123.82H397.181V125.388C396.807 125.481 396.275 125.575 395.585 125.668C394.894 125.761 394.287 125.808 393.765 125.808C393.13 125.808 392.701 125.715 392.477 125.528C392.271 125.341 392.169 124.959 392.169 124.38V123.624C391.665 124.184 391.011 124.688 390.209 125.136C389.406 125.584 388.501 125.808 387.493 125.808C386.634 125.808 385.841 125.631 385.113 125.276C384.403 124.903 383.834 124.371 383.405 123.68C382.975 122.971 382.761 122.121 382.761 121.132ZM389.285 123.484C389.677 123.484 390.125 123.372 390.629 123.148C391.133 122.905 391.571 122.616 391.945 122.28V117.688C390.265 117.688 389.005 117.977 388.165 118.556C387.343 119.116 386.933 119.844 386.933 120.74C386.933 121.636 387.138 122.317 387.549 122.784C387.978 123.251 388.557 123.484 389.285 123.484ZM401.42 132.472C401.084 132.472 400.72 132.444 400.328 132.388C399.955 132.332 399.684 132.267 399.516 132.192V129.196C399.647 129.271 399.908 129.345 400.3 129.42C400.692 129.495 401.047 129.532 401.364 129.532C402.297 129.532 403.063 129.224 403.66 128.608C404.276 127.992 404.845 126.956 405.368 125.5H403.856L398.592 111.92L397.332 111.556V109.932H405.032V111.556L402.988 111.892L405.48 119.648L406.488 122.952L407.356 119.648L409.652 111.892L407.888 111.556V109.932H413.964V111.556L412.592 111.892C411.565 115.028 410.548 118.052 409.54 120.964C408.532 123.876 407.944 125.509 407.776 125.864C407.179 127.432 406.609 128.683 406.068 129.616C405.527 130.549 404.883 131.259 404.136 131.744C403.389 132.229 402.484 132.472 401.42 132.472Z" fill="black"/>
<g clip-path="url(#clip0)">
<path d="M108.163 106.308C122.525 106.38 134.15 118.005 134.223 132.367C134.232 134.151 132.792 135.605 131.008 135.614C129.224 135.623 127.77 134.184 127.761 132.4C127.706 121.581 118.949 112.824 108.131 112.769C106.346 112.76 104.907 111.306 104.916 109.522C104.925 107.738 106.379 106.299 108.163 106.308Z" fill="#FFC94F"/>
<path d="M108.242 95.0014C128.644 95.602 145.043 112.001 145.644 132.403C145.696 134.187 144.293 135.675 142.509 135.728C140.726 135.78 139.237 134.377 139.185 132.593C138.685 115.61 125.035 101.96 108.052 101.46C106.268 101.408 104.865 99.9193 104.917 98.1357C104.97 96.3522 106.458 94.9489 108.242 95.0014Z" fill="#38ABFF"/>
<path d="M108.17 117.615L108.411 117.626C116.077 118.254 122.161 124.339 122.789 132.005C122.935 133.783 121.612 135.343 119.833 135.489C118.055 135.634 116.495 134.311 116.349 132.533C115.98 128.019 112.397 124.436 107.883 124.066C106.105 123.92 104.781 122.361 104.927 120.582C105.066 118.885 106.494 117.602 108.17 117.615Z" fill="#E656CF"/>
</g>
<defs>
<clipPath id="clip0">
<rect width="42" height="42" fill="white" transform="translate(104.916 95)"/>
</clipPath>
</defs>
</svg>
