<svg width="520" height="233" viewBox="0 0 520 233" fill="none" xmlns="http://www.w3.org/2000/svg">
<mask id="mask0" mask-type="alpha" maskUnits="userSpaceOnUse" x="0" y="0" width="520" height="233">
<rect width="520" height="233" rx="6" fill="white"/>
</mask>
<g mask="url(#mask0)">
<rect x="0.5" y="0.5" width="519" height="232" rx="5.5" fill="white" stroke="#EFEFEF"/>
<path d="M454.291 151.498C470.85 168.057 490.004 179.869 508.372 189.304C517.556 194.022 526.547 198.146 534.919 201.973L535.733 202.345C543.797 206.03 551.264 209.442 557.763 212.853C564.483 216.38 570.151 219.897 574.364 223.699C578.575 227.499 581.316 231.569 582.212 236.201C583.109 240.831 582.171 246.069 578.936 252.223C575.7 258.38 570.173 265.437 561.918 273.692C495.914 339.695 388.901 339.695 322.898 273.692C256.894 207.688 256.894 100.675 322.898 34.6711C339.416 18.1529 351.68 13.165 361.808 15.8102C366.88 17.135 371.459 20.3828 375.802 25.1374C380.146 29.8925 384.239 36.1388 388.34 43.433C392.441 50.7262 396.543 59.0535 400.909 67.9663C401.112 68.382 401.317 68.7989 401.521 69.217C405.707 77.7626 410.142 86.8184 415.05 95.984C425.346 115.212 437.732 134.939 454.291 151.498Z" stroke="#EDEDED" stroke-width="0.583704"/>
<path d="M466.773 141.055C486.996 161.279 510.389 175.705 532.827 187.229C544.046 192.992 555.028 198.03 565.257 202.704L566.252 203.159C576.102 207.66 585.227 211.829 593.169 215.998C601.38 220.307 608.31 224.606 613.463 229.257C618.614 233.905 621.972 238.889 623.071 244.565C624.17 250.241 623.019 256.655 619.062 264.183C615.103 271.713 608.345 280.341 598.257 290.428C517.59 371.095 386.809 371.1 306.149 290.44C225.488 209.78 225.494 78.9984 306.161 -1.66856C326.345 -21.8526 341.352 -27.9709 353.761 -24.7303C359.974 -23.1078 365.579 -19.1307 370.89 -13.3167C376.201 -7.50222 381.204 0.133845 386.215 9.04678C391.226 17.9588 396.237 28.1338 401.571 39.0223C401.819 39.5292 402.068 40.0376 402.318 40.5475C407.431 50.9887 412.849 62.052 418.845 73.2495C431.422 96.7379 446.55 120.832 466.773 141.055Z" stroke="#EDEDED" stroke-width="0.583704"/>
<path d="M478.967 130.857C502.773 154.663 530.311 171.645 556.728 185.213C569.936 191.996 582.867 197.928 594.91 203.431L596.083 203.967C607.681 209.266 618.425 214.175 627.778 219.084C637.447 224.158 645.612 229.223 651.684 234.702C657.754 240.18 661.716 246.057 663.012 252.756C664.308 259.454 662.948 267.018 658.285 275.889C653.62 284.762 645.658 294.926 633.778 306.806C538.771 401.813 384.746 401.826 289.755 306.835C194.764 211.844 194.777 57.8194 289.784 -37.1879C313.554 -60.9571 331.244 -68.1811 345.884 -64.3584C353.212 -62.4449 359.82 -57.7549 366.076 -50.905C372.334 -44.0546 378.226 -35.0596 384.127 -24.5638C390.028 -14.069 395.929 -2.08708 402.208 10.7333L403.088 12.529C409.108 24.823 415.487 37.8487 422.545 51.0323C437.352 78.6866 455.161 107.051 478.967 130.857Z" stroke="#EDEDED" stroke-width="0.583704"/>
<path d="M491.156 120.658C518.545 148.048 550.229 167.586 580.625 183.196C595.823 191.001 610.701 197.826 624.56 204.158L625.906 204.773C639.252 210.871 651.618 216.521 662.383 222.17C673.51 228.009 682.909 233.839 689.9 240.147C696.889 246.455 701.455 253.225 702.949 260.946C704.443 268.666 702.874 277.381 697.504 287.595C692.133 297.811 682.967 309.511 669.295 323.183C559.947 432.531 382.68 432.552 273.358 323.23C164.036 213.907 164.057 36.6405 273.404 -72.7072C300.759 -100.062 321.131 -108.391 338.002 -103.986C346.446 -101.782 354.056 -96.3789 361.259 -88.4932C368.463 -80.6069 375.245 -70.2531 382.036 -58.1744C388.826 -46.0967 395.617 -32.3079 402.842 -17.5557C403.178 -16.8689 403.516 -16.18 403.854 -15.4891C410.781 -1.34234 418.12 13.6456 426.242 28.8151C443.279 60.6354 463.768 93.2702 491.156 120.658Z" stroke="#EDEDED" stroke-width="0.583704"/>
<path d="M365.12 231.584C377.251 243.715 391.661 251.672 403.145 258.012C405.523 259.325 407.776 260.569 409.857 261.766C412.892 263.512 415.558 265.157 417.721 266.772C419.886 268.39 421.528 269.964 422.531 271.565C423.529 273.158 423.894 274.771 423.516 276.49C423.135 278.221 421.995 280.095 419.906 282.184C411.576 290.515 398.145 292.247 383.093 288.215C368.05 284.186 351.45 274.411 336.871 259.833C322.293 245.255 312.518 228.654 308.489 213.611C304.457 198.559 306.19 185.128 314.52 176.798C316.609 174.709 318.483 173.569 320.214 173.188C321.933 172.81 323.546 173.175 325.139 174.173C326.74 175.177 328.315 176.819 329.932 178.983C331.547 181.146 333.192 183.812 334.938 186.848C336.135 188.928 337.379 191.181 338.692 193.559C345.032 205.043 352.989 219.453 365.12 231.584Z" stroke="#EDEDED" stroke-width="0.583704"/>
<path fill-rule="evenodd" clip-rule="evenodd" d="M229.138 92.4576C226.527 92.4576 224.603 93.7922 223.8 96.0467H223.618V89.0661C223.618 87.8138 222.603 86.7986 221.351 86.7986H219.767C218.514 86.7986 217.499 87.8138 217.499 89.0661V108.087C217.499 109.339 218.514 110.355 219.767 110.355H221.581C222.833 110.355 223.848 109.339 223.848 108.087V100.416C223.848 98.6705 224.872 97.6113 226.423 97.6113C228.043 97.6113 228.966 98.6705 228.953 100.416V108.087C228.953 109.339 229.969 110.355 231.221 110.355H233.035C234.287 110.355 235.302 109.339 235.302 108.087V99.0819C235.315 95.2207 232.876 92.4576 229.138 92.4576ZM213.396 86.7986H196.163C195.268 86.7986 194.543 87.5237 194.543 88.4182V90.3359C194.543 91.2304 195.268 91.9555 196.163 91.9555H199.36C200.612 91.9555 201.627 92.9707 201.627 94.223V108.735C201.627 109.629 202.352 110.355 203.247 110.355H206.311C206.741 110.355 207.153 110.184 207.457 109.88C207.76 109.576 207.931 109.164 207.931 108.735V93.5751C207.931 92.6806 208.656 91.9555 209.551 91.9555H213.396C214.29 91.9555 215.015 91.2304 215.015 90.3359V88.4215C215.016 87.9913 214.846 87.5785 214.542 87.2741C214.238 86.9697 213.826 86.7986 213.396 86.7986ZM245.575 92.5123C241.338 92.919 238.034 96.3605 237.8 100.61C237.405 106.895 240.917 110.652 246.87 110.652C250.91 110.652 253.76 109.058 254.969 106.441C255.142 106.041 255.102 105.58 254.863 105.215C254.623 104.85 254.216 104.63 253.78 104.63H250.476C250.058 104.638 249.667 104.841 249.42 105.178C248.924 105.826 248.046 106.195 247.006 106.195C245.118 106.195 244.013 104.954 244.013 103.25V102.975H254.243C254.959 102.975 255.539 102.395 255.539 101.679V101.501C255.539 95.4924 251.577 91.9746 245.575 92.5123ZM244.042 99.4957C244.077 97.9668 245.337 96.9205 246.896 96.9205C248.454 96.9205 249.668 97.9797 249.701 99.4957H244.042ZM294.408 100.61C294.638 96.3594 297.944 92.9164 302.182 92.5123C308.184 91.9746 312.149 95.4924 312.149 101.501V101.679C312.149 102.395 311.569 102.975 310.853 102.975H300.646V103.25C300.646 104.954 301.751 106.195 303.636 106.195C304.676 106.195 305.554 105.826 306.053 105.178C306.299 104.84 306.69 104.637 307.109 104.63H310.384C310.821 104.629 311.229 104.849 311.469 105.214C311.709 105.579 311.75 106.04 311.576 106.441C310.368 109.058 307.517 110.652 303.478 110.652C297.521 110.652 294.012 106.895 294.408 100.61ZM303.49 96.92C301.935 96.92 300.675 97.9663 300.639 99.4953H306.298C306.263 97.9793 305.045 96.92 303.49 96.92ZM317.453 86.8028C315.943 86.8028 314.719 88.0265 314.719 89.5361V107.625C314.719 109.135 315.943 110.359 317.453 110.359H318.335C319.845 110.359 321.068 109.135 321.068 107.625V89.5361C321.068 88.0265 319.845 86.8028 318.335 86.8028H317.453ZM324.287 89.5366C324.287 88.027 325.51 86.8033 327.02 86.8033H327.902C329.412 86.8033 330.636 88.027 330.636 89.5366V107.626C330.636 109.136 329.412 110.359 327.902 110.359H327.02C325.51 110.359 324.287 109.136 324.287 107.626V89.5366ZM342.373 92.4583C336.624 92.4583 333.219 96.1414 333.219 101.57C333.219 106.999 336.627 110.679 342.373 110.679C348.12 110.679 351.527 106.996 351.527 101.57C351.527 96.1446 348.126 92.4583 342.373 92.4583ZM342.423 105.981C340.719 105.981 339.708 104.29 339.708 101.518C339.708 98.7449 340.719 97.0572 342.423 97.0572C344.042 97.0572 345.043 98.7481 345.043 101.518C345.043 104.287 344.033 105.981 342.423 105.981ZM377.287 92.6912H375.738C374.641 92.6911 373.701 93.477 373.506 94.5571L371.909 103.365H371.773L369.83 94.4728C369.602 93.4334 368.681 92.6924 367.617 92.6912H365.117C364.043 92.6916 363.117 93.4447 362.898 94.4955L361.019 103.459H360.883L359.192 94.5506C358.991 93.4781 358.054 92.701 356.963 92.701H355.412C354.713 92.701 354.054 93.0228 353.624 93.5734C353.195 94.1239 353.043 94.8417 353.212 95.5191L356.497 108.651C356.749 109.66 357.656 110.368 358.696 110.368H362.03C363.06 110.368 363.961 109.673 364.223 108.677L366.263 100.903H366.448L368.489 108.677C368.751 109.673 369.651 110.368 370.682 110.368H374.018C375.058 110.368 375.965 109.66 376.218 108.651L379.486 95.5224C379.66 94.8431 379.511 94.1214 379.08 93.5676C378.65 93.0138 377.988 92.6903 377.287 92.6912ZM285.119 87.1254H290.363C290.796 87.1211 291.212 87.2899 291.519 87.5941C291.826 87.8983 291.999 88.3127 291.999 88.7451V109.049C291.999 109.943 291.274 110.668 290.379 110.668H287.364C286.469 110.668 285.744 109.943 285.744 109.049V97.0635H285.559L280.717 109.467C280.474 110.088 279.874 110.497 279.207 110.497H277.649C276.981 110.497 276.381 110.086 276.14 109.463L271.281 96.9696H271.096V109.062C271.096 109.956 270.371 110.681 269.476 110.681H266.457C265.563 110.681 264.838 109.956 264.838 109.062V88.7451C264.838 87.8506 265.563 87.1254 266.457 87.1254H271.721C272.379 87.1248 272.971 87.5215 273.221 88.1296L278.284 100.468H278.559L283.622 88.1296C283.872 87.5226 284.463 87.1261 285.119 87.1254Z" fill="black"/>
<g filter="url(#filter0_i)">
<path fill-rule="evenodd" clip-rule="evenodd" d="M145.646 83.5151C149.585 78.6692 154.697 76 160.038 76C170.773 76 185.674 87.5091 185.674 98.8369C185.674 110.165 170.757 121.674 160.038 121.674C154.697 121.674 149.585 119.014 145.646 114.155C142.057 109.744 140 104.162 140 98.8369C140 93.5115 142.057 87.9302 145.646 83.5151ZM146.475 98.8375C146.475 106.246 152.523 115.196 160.035 115.196C167.423 115.196 179.192 106.265 179.192 98.8375C179.192 91.4098 167.423 82.4791 160.035 82.4791C153.893 82.4791 146.475 89.7675 146.475 98.8375Z" fill="url(#paint0_linear)"/>
</g>
<path d="M116.086 155H113.779L117.294 144.818H120.068L123.578 155H121.271L120.516 152.678H116.842L116.086 155ZM117.389 150.998H119.974L118.721 147.145H118.642L117.389 150.998Z" fill="black"/>
<path d="M130.94 149.541L129.001 149.661C128.948 149.415 128.814 149.205 128.598 149.029C128.383 148.853 128.091 148.766 127.723 148.766C127.395 148.766 127.117 148.835 126.888 148.974C126.663 149.11 126.552 149.293 126.555 149.521C126.552 149.704 126.623 149.858 126.769 149.984C126.918 150.11 127.17 150.211 127.525 150.287L128.907 150.565C130.375 150.867 131.111 151.556 131.114 152.634C131.114 153.134 130.967 153.573 130.672 153.951C130.38 154.329 129.979 154.624 129.468 154.836C128.958 155.045 128.373 155.149 127.713 155.149C126.703 155.149 125.897 154.939 125.297 154.518C124.697 154.094 124.348 153.517 124.248 152.788L126.331 152.678C126.398 152.99 126.55 153.225 126.789 153.384C127.031 153.543 127.341 153.623 127.718 153.623C128.09 153.623 128.388 153.55 128.613 153.404C128.842 153.258 128.958 153.073 128.961 152.847C128.951 152.469 128.625 152.216 127.982 152.087L126.659 151.823C125.181 151.528 124.445 150.801 124.452 149.641C124.449 148.905 124.742 148.325 125.332 147.901C125.925 147.476 126.711 147.264 127.689 147.264C128.653 147.264 129.412 147.468 129.966 147.876C130.522 148.283 130.847 148.839 130.94 149.541Z" fill="black"/>
<path d="M133.755 157.849C133.487 157.849 133.235 157.829 132.999 157.789C132.767 157.749 132.575 157.698 132.423 157.635L132.9 156.049C133.275 156.165 133.589 156.195 133.845 156.139C134.103 156.085 134.307 155.887 134.456 155.542L134.58 155.219L131.841 147.364H134.068L135.649 152.972H135.729L137.325 147.364L139.567 147.374L136.599 155.825C136.387 156.435 136.057 156.924 135.61 157.292C135.162 157.663 134.544 157.849 133.755 157.849Z" fill="black"/>
<path d="M142.769 150.585V155H140.651V147.364H142.669V148.711H142.759C142.931 148.267 143.214 147.915 143.609 147.657C144.007 147.395 144.489 147.264 145.056 147.264C145.851 147.264 146.489 147.521 146.97 148.035C147.45 148.545 147.691 149.246 147.691 150.138V155H145.573V150.516C145.576 150.048 145.457 149.684 145.215 149.422C144.973 149.157 144.64 149.024 144.215 149.024C143.788 149.024 143.44 149.162 143.171 149.437C142.906 149.709 142.772 150.091 142.769 150.585Z" fill="black"/>
<path d="M152.81 155.149C152.028 155.149 151.355 154.983 150.792 154.652C150.231 154.317 149.801 153.853 149.499 153.26C149.201 152.667 149.051 151.984 149.051 151.212C149.051 150.429 149.202 149.743 149.504 149.153C149.809 148.56 150.241 148.098 150.801 147.766C151.362 147.432 152.028 147.264 152.8 147.264C153.466 147.264 154.05 147.385 154.55 147.627C155.054 147.869 155.45 148.209 155.738 148.646C156.03 149.084 156.191 149.598 156.221 150.188H154.222C154.166 149.806 154.016 149.5 153.775 149.268C153.536 149.032 153.223 148.915 152.835 148.915C152.344 148.915 151.95 149.112 151.652 149.506C151.353 149.901 151.204 150.459 151.204 151.182C151.204 151.911 151.352 152.476 151.647 152.877C151.945 153.275 152.341 153.474 152.835 153.474C153.199 153.474 153.506 153.364 153.755 153.146C154.003 152.924 154.159 152.609 154.222 152.201H156.221C156.187 152.784 156.028 153.298 155.743 153.742C155.462 154.186 155.072 154.533 154.575 154.781C154.078 155.027 153.489 155.149 152.81 155.149Z" fill="black"/>
<path d="M159.694 150.585V155H157.577V144.818H159.635V148.711H159.724C159.9 148.26 160.178 147.907 160.559 147.652C160.944 147.393 161.426 147.264 162.006 147.264C162.802 147.264 163.441 147.519 163.925 148.03C164.409 148.54 164.649 149.243 164.646 150.138V155H162.528V150.516C162.532 150.045 162.412 149.679 162.17 149.417C161.932 149.155 161.597 149.024 161.166 149.024C160.735 149.024 160.382 149.162 160.107 149.437C159.835 149.709 159.698 150.091 159.694 150.585Z" fill="black"/>
<path d="M166.313 155V147.364H168.366V148.696H168.446C168.585 148.222 168.819 147.864 169.147 147.622C169.475 147.377 169.853 147.254 170.28 147.254C170.516 147.254 170.738 147.279 170.946 147.329V149.208C170.847 149.175 170.709 149.148 170.534 149.129C170.358 149.105 170.197 149.094 170.051 149.094C169.584 149.094 169.196 149.241 168.888 149.536C168.583 149.828 168.431 150.209 168.431 150.68V155H166.313Z" fill="black"/>
<path d="M175.136 155.149C174.364 155.149 173.696 154.985 173.133 154.657C172.573 154.326 172.14 153.865 171.835 153.275C171.53 152.682 171.378 151.994 171.378 151.212C171.378 150.423 171.53 149.733 171.835 149.143C172.14 148.55 172.573 148.089 173.133 147.761C173.696 147.43 174.364 147.264 175.136 147.264C175.908 147.264 176.575 147.43 177.135 147.761C177.698 148.089 178.132 148.55 178.437 149.143C178.742 149.733 178.895 150.423 178.895 151.212C178.895 151.994 178.742 152.682 178.437 153.275C178.132 153.865 177.698 154.326 177.135 154.657C176.575 154.985 175.908 155.149 175.136 155.149ZM175.146 153.509C175.67 153.509 176.066 153.29 176.334 152.852C176.606 152.415 176.742 151.863 176.742 151.197C176.742 150.531 176.606 149.979 176.334 149.541C176.066 149.1 175.67 148.88 175.146 148.88C174.613 148.88 174.21 149.1 173.938 149.541C173.666 149.979 173.53 150.531 173.53 151.197C173.53 151.863 173.666 152.415 173.938 152.852C174.21 153.29 174.613 153.509 175.146 153.509Z" fill="black"/>
<path d="M182.39 150.585V155H180.272V147.364H182.29V148.711H182.38C182.552 148.267 182.836 147.915 183.23 147.657C183.628 147.395 184.11 147.264 184.677 147.264C185.472 147.264 186.11 147.521 186.591 148.035C187.071 148.545 187.312 149.246 187.312 150.138V155H185.194V150.516C185.197 150.048 185.078 149.684 184.836 149.422C184.594 149.157 184.261 149.024 183.836 149.024C183.409 149.024 183.061 149.162 182.792 149.437C182.527 149.709 182.393 150.091 182.39 150.585Z" fill="black"/>
<path d="M192.431 155.149C191.659 155.149 190.991 154.985 190.428 154.657C189.867 154.326 189.435 153.865 189.13 153.275C188.825 152.682 188.673 151.994 188.673 151.212C188.673 150.423 188.825 149.733 189.13 149.143C189.435 148.55 189.867 148.089 190.428 147.761C190.991 147.43 191.659 147.264 192.431 147.264C193.203 147.264 193.87 147.43 194.43 147.761C194.993 148.089 195.427 148.55 195.732 149.143C196.037 149.733 196.19 150.423 196.19 151.212C196.19 151.994 196.037 152.682 195.732 153.275C195.427 153.865 194.993 154.326 194.43 154.657C193.87 154.985 193.203 155.149 192.431 155.149ZM192.441 153.509C192.965 153.509 193.361 153.29 193.629 152.852C193.901 152.415 194.037 151.863 194.037 151.197C194.037 150.531 193.901 149.979 193.629 149.541C193.361 149.1 192.965 148.88 192.441 148.88C191.907 148.88 191.505 149.1 191.233 149.541C190.961 149.979 190.825 150.531 190.825 151.197C190.825 151.863 190.961 152.415 191.233 152.852C191.505 153.29 191.907 153.509 192.441 153.509Z" fill="black"/>
<path d="M202.464 151.749V147.364H204.582V155H202.548V153.613H202.469C202.296 154.06 202.01 154.42 201.609 154.692C201.211 154.964 200.725 155.099 200.152 155.099C199.383 155.099 198.76 154.844 198.283 154.334C197.809 153.82 197.57 153.117 197.567 152.226V147.364H199.685V151.848C199.688 152.299 199.809 152.655 200.048 152.917C200.286 153.179 200.606 153.31 201.007 153.31C201.388 153.31 201.726 153.177 202.021 152.912C202.32 152.647 202.467 152.259 202.464 151.749Z" fill="black"/>
<path d="M212.629 149.541L210.691 149.661C210.637 149.415 210.503 149.205 210.288 149.029C210.072 148.853 209.781 148.766 209.413 148.766C209.085 148.766 208.806 148.835 208.578 148.974C208.352 149.11 208.241 149.293 208.244 149.521C208.241 149.704 208.312 149.858 208.458 149.984C208.607 150.11 208.859 150.211 209.214 150.287L210.596 150.565C212.064 150.867 212.8 151.556 212.803 152.634C212.803 153.134 212.656 153.573 212.361 153.951C212.069 154.329 211.668 154.624 211.158 154.836C210.647 155.045 210.062 155.149 209.403 155.149C208.392 155.149 207.587 154.939 206.987 154.518C206.387 154.094 206.037 153.517 205.938 152.788L208.021 152.678C208.087 152.99 208.24 153.225 208.478 153.384C208.72 153.543 209.03 153.623 209.408 153.623C209.779 153.623 210.077 153.55 210.303 153.404C210.531 153.258 210.647 153.073 210.651 152.847C210.641 152.469 210.314 152.216 209.671 152.087L208.349 151.823C206.871 151.528 206.135 150.801 206.142 149.641C206.138 148.905 206.432 148.325 207.021 147.901C207.615 147.476 208.4 147.264 209.378 147.264C210.343 147.264 211.102 147.468 211.655 147.876C212.212 148.283 212.537 148.839 212.629 149.541Z" fill="black"/>
<path d="M220.828 155.149C220.045 155.149 219.373 154.983 218.809 154.652C218.249 154.317 217.818 153.853 217.517 153.26C217.218 152.667 217.069 151.984 217.069 151.212C217.069 150.429 217.22 149.743 217.521 149.153C217.826 148.56 218.259 148.098 218.819 147.766C219.379 147.432 220.045 147.264 220.818 147.264C221.484 147.264 222.067 147.385 222.568 147.627C223.071 147.869 223.468 148.209 223.756 148.646C224.048 149.084 224.208 149.598 224.238 150.188H222.24C222.183 149.806 222.034 149.5 221.792 149.268C221.553 149.032 221.24 148.915 220.852 148.915C220.362 148.915 219.968 149.112 219.669 149.506C219.371 149.901 219.222 150.459 219.222 151.182C219.222 151.911 219.369 152.476 219.664 152.877C219.963 153.275 220.359 153.474 220.852 153.474C221.217 153.474 221.524 153.364 221.772 153.146C222.021 152.924 222.177 152.609 222.24 152.201H224.238C224.205 152.784 224.046 153.298 223.761 153.742C223.479 154.186 223.09 154.533 222.593 154.781C222.095 155.027 221.507 155.149 220.828 155.149Z" fill="black"/>
<path d="M229.044 155.149C228.272 155.149 227.604 154.985 227.041 154.657C226.481 154.326 226.048 153.865 225.743 153.275C225.438 152.682 225.286 151.994 225.286 151.212C225.286 150.423 225.438 149.733 225.743 149.143C226.048 148.55 226.481 148.089 227.041 147.761C227.604 147.43 228.272 147.264 229.044 147.264C229.817 147.264 230.483 147.43 231.043 147.761C231.606 148.089 232.041 148.55 232.346 149.143C232.65 149.733 232.803 150.423 232.803 151.212C232.803 151.994 232.65 152.682 232.346 153.275C232.041 153.865 231.606 154.326 231.043 154.657C230.483 154.985 229.817 155.149 229.044 155.149ZM229.054 153.509C229.578 153.509 229.974 153.29 230.243 152.852C230.514 152.415 230.65 151.863 230.65 151.197C230.65 150.531 230.514 149.979 230.243 149.541C229.974 149.1 229.578 148.88 229.054 148.88C228.521 148.88 228.118 149.1 227.846 149.541C227.574 149.979 227.439 150.531 227.439 151.197C227.439 151.863 227.574 152.415 227.846 152.852C228.118 153.29 228.521 153.509 229.054 153.509Z" fill="black"/>
<path d="M234.18 155V147.364H236.199V148.711H236.288C236.447 148.26 236.712 147.907 237.083 147.652C237.458 147.393 237.902 147.264 238.416 147.264C238.94 147.264 239.385 147.395 239.753 147.657C240.121 147.915 240.366 148.267 240.489 148.711H240.569C240.724 148.273 241.006 147.924 241.414 147.662C241.825 147.397 242.31 147.264 242.87 147.264C243.583 147.264 244.161 147.491 244.605 147.945C245.053 148.396 245.277 149.036 245.277 149.864V155H243.164V150.282C243.164 149.858 243.051 149.54 242.826 149.327C242.6 149.115 242.319 149.009 241.98 149.009C241.596 149.009 241.296 149.132 241.081 149.377C240.865 149.622 240.757 149.942 240.757 150.337V155H238.704V150.237C238.704 149.863 238.596 149.564 238.381 149.342C238.169 149.12 237.889 149.009 237.541 149.009C237.19 149.009 236.895 149.139 236.656 149.397C236.417 149.652 236.298 149.992 236.298 150.416V155H234.18Z" fill="black"/>
<path d="M246.95 155V147.364H248.968V148.711H249.058C249.217 148.26 249.482 147.907 249.853 147.652C250.228 147.393 250.672 147.264 251.185 147.264C251.709 147.264 252.155 147.395 252.523 147.657C252.891 147.915 253.136 148.267 253.259 148.711H253.338C253.494 148.273 253.776 147.924 254.183 147.662C254.594 147.397 255.08 147.264 255.64 147.264C256.353 147.264 256.931 147.491 257.375 147.945C257.822 148.396 258.046 149.036 258.046 149.864V155H255.933V150.282C255.933 149.858 255.821 149.54 255.595 149.327C255.37 149.115 255.088 149.009 254.75 149.009C254.366 149.009 254.066 149.132 253.85 149.377C253.635 149.622 253.527 149.942 253.527 150.337V155H251.474V150.237C251.474 149.863 251.366 149.564 251.151 149.342C250.938 149.12 250.658 149.009 250.31 149.009C249.959 149.009 249.664 149.139 249.425 149.397C249.187 149.652 249.067 149.992 249.067 150.416V155H246.95Z" fill="black"/>
<path d="M264.616 151.749V147.364H266.734V155H264.701V153.613H264.621C264.449 154.06 264.162 154.42 263.761 154.692C263.363 154.964 262.878 155.099 262.304 155.099C261.535 155.099 260.912 154.844 260.435 154.334C259.961 153.82 259.722 153.117 259.719 152.226V147.364H261.837V151.848C261.84 152.299 261.961 152.655 262.2 152.917C262.439 153.179 262.758 153.31 263.159 153.31C263.541 153.31 263.879 153.177 264.174 152.912C264.472 152.647 264.619 152.259 264.616 151.749Z" fill="black"/>
<path d="M270.546 150.585V155H268.428V147.364H270.447V148.711H270.536C270.708 148.267 270.992 147.915 271.386 147.657C271.784 147.395 272.266 147.264 272.833 147.264C273.628 147.264 274.266 147.521 274.747 148.035C275.228 148.545 275.468 149.246 275.468 150.138V155H273.35V150.516C273.353 150.048 273.234 149.684 272.992 149.422C272.75 149.157 272.417 149.024 271.993 149.024C271.565 149.024 271.217 149.162 270.949 149.437C270.684 149.709 270.549 150.091 270.546 150.585Z" fill="black"/>
<path d="M277.137 155V147.364H279.255V155H277.137ZM278.201 146.379C277.889 146.379 277.621 146.275 277.396 146.066C277.17 145.854 277.058 145.6 277.058 145.305C277.058 145.01 277.17 144.759 277.396 144.55C277.621 144.341 277.889 144.237 278.201 144.237C278.516 144.237 278.786 144.341 279.011 144.55C279.237 144.759 279.349 145.01 279.349 145.305C279.349 145.6 279.237 145.854 279.011 146.066C278.786 146.275 278.516 146.379 278.201 146.379Z" fill="black"/>
<path d="M284.402 155.149C283.62 155.149 282.947 154.983 282.383 154.652C281.823 154.317 281.392 153.853 281.091 153.26C280.792 152.667 280.643 151.984 280.643 151.212C280.643 150.429 280.794 149.743 281.096 149.153C281.401 148.56 281.833 148.098 282.393 147.766C282.953 147.432 283.62 147.264 284.392 147.264C285.058 147.264 285.641 147.385 286.142 147.627C286.646 147.869 287.042 148.209 287.33 148.646C287.622 149.084 287.782 149.598 287.812 150.188H285.814C285.757 149.806 285.608 149.5 285.366 149.268C285.128 149.032 284.814 148.915 284.427 148.915C283.936 148.915 283.542 149.112 283.243 149.506C282.945 149.901 282.796 150.459 282.796 151.182C282.796 151.911 282.943 152.476 283.238 152.877C283.537 153.275 283.933 153.474 284.427 153.474C284.791 153.474 285.098 153.364 285.346 153.146C285.595 152.924 285.751 152.609 285.814 152.201H287.812C287.779 152.784 287.62 153.298 287.335 153.742C287.053 154.186 286.664 154.533 286.167 154.781C285.67 155.027 285.081 155.149 284.402 155.149Z" fill="black"/>
<path d="M291.346 155.144C290.617 155.144 290.012 154.954 289.531 154.572C289.051 154.191 288.81 153.623 288.81 152.867C288.81 152.297 288.945 151.85 289.213 151.525C289.482 151.2 289.833 150.963 290.267 150.814C290.705 150.661 291.175 150.562 291.679 150.516C292.342 150.449 292.816 150.38 293.101 150.307C293.386 150.234 293.528 150.075 293.528 149.83V149.8C293.528 149.485 293.429 149.241 293.23 149.069C293.035 148.897 292.756 148.81 292.395 148.81C292.014 148.81 291.71 148.893 291.485 149.059C291.26 149.225 291.111 149.435 291.038 149.69L289.079 149.531C289.225 148.835 289.586 148.283 290.163 147.876C290.743 147.468 291.49 147.264 292.405 147.264C292.972 147.264 293.502 147.354 293.996 147.533C294.49 147.712 294.887 147.992 295.189 148.373C295.494 148.751 295.646 149.243 295.646 149.849V155H293.638V153.941H293.578C293.393 154.296 293.114 154.586 292.743 154.811C292.375 155.033 291.909 155.144 291.346 155.144ZM291.952 153.683C292.416 153.683 292.798 153.548 293.096 153.28C293.394 153.008 293.543 152.672 293.543 152.271V151.46C293.46 151.517 293.331 151.566 293.156 151.609C292.983 151.652 292.798 151.691 292.599 151.724C292.403 151.754 292.228 151.78 292.072 151.803C291.701 151.856 291.401 151.961 291.172 152.116C290.946 152.272 290.834 152.499 290.834 152.798C290.834 153.089 290.938 153.31 291.147 153.459C291.359 153.608 291.628 153.683 291.952 153.683Z" fill="black"/>
<path d="M301.351 147.364V148.955H299.914V152.653C299.914 152.945 299.981 153.142 300.113 153.245C300.246 153.348 300.418 153.399 300.63 153.399C300.73 153.399 300.829 153.391 300.929 153.374C301.028 153.354 301.104 153.339 301.157 153.33L301.49 154.906C301.384 154.939 301.235 154.977 301.043 155.02C300.851 155.066 300.617 155.094 300.342 155.104C299.573 155.138 298.955 154.972 298.488 154.607C298.024 154.239 297.793 153.681 297.797 152.932V148.955H296.752V147.364H297.797V145.534H299.914V147.364H301.351Z" fill="black"/>
<path d="M302.731 155V147.364H304.849V155H302.731ZM303.795 146.379C303.483 146.379 303.215 146.275 302.989 146.066C302.764 145.854 302.651 145.6 302.651 145.305C302.651 145.01 302.764 144.759 302.989 144.55C303.215 144.341 303.483 144.237 303.795 144.237C304.11 144.237 304.38 144.341 304.605 144.55C304.83 144.759 304.943 145.01 304.943 145.305C304.943 145.6 304.83 145.854 304.605 146.066C304.38 146.275 304.11 146.379 303.795 146.379Z" fill="black"/>
<path d="M309.996 155.149C309.223 155.149 308.555 154.985 307.992 154.657C307.432 154.326 306.999 153.865 306.694 153.275C306.39 152.682 306.237 151.994 306.237 151.212C306.237 150.423 306.39 149.733 306.694 149.143C306.999 148.55 307.432 148.089 307.992 147.761C308.555 147.43 309.223 147.264 309.996 147.264C310.768 147.264 311.434 147.43 311.994 147.761C312.558 148.089 312.992 148.55 313.297 149.143C313.602 149.733 313.754 150.423 313.754 151.212C313.754 151.994 313.602 152.682 313.297 153.275C312.992 153.865 312.558 154.326 311.994 154.657C311.434 154.985 310.768 155.149 309.996 155.149ZM310.006 153.509C310.529 153.509 310.925 153.29 311.194 152.852C311.465 152.415 311.601 151.863 311.601 151.197C311.601 150.531 311.465 149.979 311.194 149.541C310.925 149.1 310.529 148.88 310.006 148.88C309.472 148.88 309.069 149.1 308.797 149.541C308.526 149.979 308.39 150.531 308.39 151.197C308.39 151.863 308.526 152.415 308.797 152.852C309.069 153.29 309.472 153.509 310.006 153.509Z" fill="black"/>
<path d="M317.249 150.585V155H315.131V147.364H317.15V148.711H317.239C317.412 148.267 317.695 147.915 318.089 147.657C318.487 147.395 318.969 147.264 319.536 147.264C320.331 147.264 320.97 147.521 321.45 148.035C321.931 148.545 322.171 149.246 322.171 150.138V155H320.053V150.516C320.056 150.048 319.937 149.684 319.695 149.422C319.453 149.157 319.12 149.024 318.696 149.024C318.268 149.024 317.92 149.162 317.652 149.437C317.387 149.709 317.252 150.091 317.249 150.585Z" fill="black"/>
<path d="M330.561 155.149C329.778 155.149 329.104 154.99 328.537 154.672C327.97 154.35 327.535 153.896 327.23 153.31C326.925 152.72 326.772 152.022 326.772 151.217C326.772 150.431 326.925 149.742 327.23 149.148C327.535 148.555 327.964 148.093 328.517 147.761C329.074 147.43 329.727 147.264 330.476 147.264C331.149 147.264 331.755 147.407 332.296 147.692C332.839 147.977 333.27 148.408 333.588 148.984C333.906 149.558 334.066 150.277 334.066 151.142V151.724H328.865V151.729C328.865 152.299 329.021 152.748 329.333 153.076C329.644 153.404 330.065 153.568 330.595 153.568C330.95 153.568 331.257 153.494 331.515 153.344C331.774 153.195 331.956 152.975 332.062 152.683L334.021 152.813C333.872 153.522 333.494 154.089 332.887 154.513C332.281 154.937 331.505 155.149 330.561 155.149ZM328.865 150.411H332.072C332.069 149.957 331.923 149.583 331.634 149.288C331.346 148.993 330.972 148.845 330.511 148.845C330.04 148.845 329.654 148.998 329.352 149.303C329.051 149.607 328.888 149.977 328.865 150.411Z" fill="black"/>
<path d="M335.448 155V147.364H337.466V148.711H337.556C337.715 148.26 337.98 147.907 338.351 147.652C338.726 147.393 339.17 147.264 339.683 147.264C340.207 147.264 340.653 147.395 341.021 147.657C341.389 147.915 341.634 148.267 341.757 148.711H341.836C341.992 148.273 342.274 147.924 342.681 147.662C343.092 147.397 343.578 147.264 344.138 147.264C344.851 147.264 345.429 147.491 345.873 147.945C346.32 148.396 346.544 149.036 346.544 149.864V155H344.431V150.282C344.431 149.858 344.319 149.54 344.093 149.327C343.868 149.115 343.586 149.009 343.248 149.009C342.864 149.009 342.564 149.132 342.348 149.377C342.133 149.622 342.025 149.942 342.025 150.337V155H339.972V150.237C339.972 149.863 339.864 149.564 339.649 149.342C339.436 149.12 339.156 149.009 338.808 149.009C338.457 149.009 338.162 149.139 337.923 149.397C337.685 149.652 337.566 149.992 337.566 150.416V155H335.448Z" fill="black"/>
<path d="M348.217 157.864V147.364H350.305V148.646H350.4C350.496 148.438 350.632 148.227 350.807 148.015C350.983 147.803 351.215 147.625 351.503 147.483C351.792 147.337 352.148 147.264 352.572 147.264C353.132 147.264 353.646 147.41 354.113 147.702C354.581 147.99 354.955 148.426 355.237 149.009C355.522 149.589 355.665 150.317 355.665 151.192C355.665 152.044 355.527 152.763 355.252 153.349C354.977 153.933 354.606 154.375 354.138 154.677C353.671 154.975 353.147 155.124 352.567 155.124C352.156 155.124 351.807 155.056 351.518 154.92C351.233 154.785 351 154.614 350.817 154.408C350.638 154.2 350.499 153.989 350.4 153.777H350.335V157.864H348.217ZM350.29 151.182C350.29 151.861 350.43 152.408 350.708 152.822C350.99 153.233 351.386 153.439 351.896 153.439C352.416 153.439 352.814 153.23 353.089 152.813C353.364 152.392 353.502 151.848 353.502 151.182C353.502 150.519 353.364 149.982 353.089 149.571C352.818 149.157 352.42 148.95 351.896 148.95C351.382 148.95 350.986 149.152 350.708 149.556C350.43 149.957 350.29 150.499 350.29 151.182Z" fill="black"/>
<path d="M359.254 155.144C358.525 155.144 357.92 154.954 357.439 154.572C356.959 154.191 356.719 153.623 356.719 152.867C356.719 152.297 356.853 151.85 357.121 151.525C357.39 151.2 357.741 150.963 358.175 150.814C358.613 150.661 359.083 150.562 359.587 150.516C360.25 150.449 360.724 150.38 361.009 150.307C361.294 150.234 361.437 150.075 361.437 149.83V149.8C361.437 149.485 361.337 149.241 361.138 149.069C360.943 148.897 360.664 148.81 360.303 148.81C359.922 148.81 359.619 148.893 359.393 149.059C359.168 149.225 359.019 149.435 358.946 149.69L356.987 149.531C357.133 148.835 357.494 148.283 358.071 147.876C358.651 147.468 359.398 147.264 360.313 147.264C360.88 147.264 361.41 147.354 361.904 147.533C362.398 147.712 362.796 147.992 363.097 148.373C363.402 148.751 363.555 149.243 363.555 149.849V155H361.546V153.941H361.486C361.301 154.296 361.022 154.586 360.651 154.811C360.283 155.033 359.818 155.144 359.254 155.144ZM359.861 153.683C360.325 153.683 360.706 153.548 361.004 153.28C361.302 153.008 361.452 152.672 361.452 152.271V151.46C361.369 151.517 361.239 151.566 361.064 151.609C360.891 151.652 360.706 151.691 360.507 151.724C360.311 151.754 360.136 151.78 359.98 151.803C359.609 151.856 359.309 151.961 359.08 152.116C358.855 152.272 358.742 152.499 358.742 152.798C358.742 153.089 358.846 153.31 359.055 153.459C359.267 153.608 359.536 153.683 359.861 153.683Z" fill="black"/>
<path d="M369.259 147.364V148.955H367.823V152.653C367.823 152.945 367.889 153.142 368.021 153.245C368.154 153.348 368.326 153.399 368.539 153.399C368.638 153.399 368.737 153.391 368.837 153.374C368.936 153.354 369.012 153.339 369.066 153.33L369.399 154.906C369.293 154.939 369.143 154.977 368.951 155.02C368.759 155.066 368.525 155.094 368.25 155.104C367.481 155.138 366.863 154.972 366.396 154.607C365.932 154.239 365.701 153.681 365.705 152.932V148.955H364.661V147.364H365.705V145.534H367.823V147.364H369.259Z" fill="black"/>
<path d="M372.921 150.585V155H370.803V144.818H372.861V148.711H372.951C373.126 148.26 373.405 147.907 373.786 147.652C374.171 147.393 374.653 147.264 375.233 147.264C376.028 147.264 376.668 147.519 377.152 148.03C377.636 148.54 377.876 149.243 377.873 150.138V155H375.755V150.516C375.758 150.045 375.639 149.679 375.397 149.417C375.158 149.155 374.823 149.024 374.393 149.024C373.962 149.024 373.609 149.162 373.334 149.437C373.062 149.709 372.924 150.091 372.921 150.585Z" fill="black"/>
<path d="M379.539 155V147.364H381.657V155H379.539ZM380.603 146.379C380.292 146.379 380.023 146.275 379.798 146.066C379.573 145.854 379.46 145.6 379.46 145.305C379.46 145.01 379.573 144.759 379.798 144.55C380.023 144.341 380.292 144.237 380.603 144.237C380.918 144.237 381.188 144.341 381.414 144.55C381.639 144.759 381.752 145.01 381.752 145.305C381.752 145.6 381.639 145.854 381.414 146.066C381.188 146.275 380.918 146.379 380.603 146.379Z" fill="black"/>
<path d="M383.314 155V153.737L387.053 149.109V149.054H383.443V147.364H389.603V148.741L386.093 153.255V153.31H389.732V155H383.314Z" fill="black"/>
<path d="M394.613 155.149C393.831 155.149 393.157 154.99 392.59 154.672C392.023 154.35 391.587 153.896 391.282 153.31C390.977 152.72 390.825 152.022 390.825 151.217C390.825 150.431 390.977 149.742 391.282 149.148C391.587 148.555 392.016 148.093 392.57 147.761C393.127 147.43 393.78 147.264 394.529 147.264C395.202 147.264 395.808 147.407 396.348 147.692C396.892 147.977 397.323 148.408 397.641 148.984C397.959 149.558 398.118 150.277 398.118 151.142V151.724H392.918V151.729C392.918 152.299 393.074 152.748 393.385 153.076C393.697 153.404 394.118 153.568 394.648 153.568C395.003 153.568 395.309 153.494 395.568 153.344C395.826 153.195 396.009 152.975 396.115 152.683L398.074 152.813C397.924 153.522 397.547 154.089 396.94 154.513C396.333 154.937 395.558 155.149 394.613 155.149ZM392.918 150.411H396.125C396.121 149.957 395.975 149.583 395.687 149.288C395.399 148.993 395.024 148.845 394.564 148.845C394.093 148.845 393.707 148.998 393.405 149.303C393.104 149.607 392.941 149.977 392.918 150.411Z" fill="black"/>
<path d="M402.314 155.124C401.734 155.124 401.211 154.975 400.743 154.677C400.276 154.375 399.905 153.933 399.63 153.349C399.355 152.763 399.217 152.044 399.217 151.192C399.217 150.317 399.358 149.589 399.64 149.009C399.925 148.426 400.301 147.99 400.768 147.702C401.239 147.41 401.752 147.264 402.309 147.264C402.737 147.264 403.093 147.337 403.378 147.483C403.667 147.625 403.899 147.803 404.074 148.015C404.253 148.227 404.389 148.438 404.482 148.646H404.547V144.818H406.659V155H404.571V153.777H404.482C404.386 153.989 404.247 154.2 404.064 154.408C403.882 154.614 403.647 154.785 403.358 154.92C403.073 155.056 402.725 155.124 402.314 155.124ZM402.985 153.439C403.496 153.439 403.89 153.233 404.169 152.822C404.45 152.408 404.591 151.861 404.591 151.182C404.591 150.499 404.452 149.957 404.174 149.556C403.895 149.152 403.499 148.95 402.985 148.95C402.462 148.95 402.062 149.157 401.787 149.571C401.516 149.982 401.38 150.519 401.38 151.182C401.38 151.848 401.517 152.392 401.792 152.813C402.067 153.23 402.465 153.439 402.985 153.439Z" fill="black"/>
</g>
<defs>
<filter id="filter0_i" x="140" y="76" width="45.6738" height="45.6738" filterUnits="userSpaceOnUse" color-interpolation-filters="sRGB">
<feFlood flood-opacity="0" result="BackgroundImageFix"/>
<feBlend mode="normal" in="SourceGraphic" in2="BackgroundImageFix" result="shape"/>
<feColorMatrix in="SourceAlpha" type="matrix" values="0 0 0 0 0 0 0 0 0 0 0 0 0 0 0 0 0 0 127 0" result="hardAlpha"/>
<feOffset dy="-0.965766"/>
<feComposite in2="hardAlpha" operator="arithmetic" k2="-1" k3="1"/>
<feColorMatrix type="matrix" values="0 0 0 0 0 0 0 0 0 0 0 0 0 0 0 0 0 0 0.06 0"/>
<feBlend mode="normal" in2="shape" result="effect1_innerShadow"/>
</filter>
<linearGradient id="paint0_linear" x1="139.283" y1="76.0001" x2="192.173" y2="76.0554" gradientUnits="userSpaceOnUse">
<stop stop-color="#FFAB91"/>
<stop offset="1" stop-color="#FF76B8"/>
</linearGradient>
</defs>
</svg>
